<?xml version="1.0" encoding="utf-8"?>
<!-- Generator: Adobe Illustrator 27.9.0, SVG Export Plug-In . SVG Version: 6.00 Build 0)  -->
<svg version="1.1" id="Layer_1" xmlns="http://www.w3.org/2000/svg" xmlns:xlink="http://www.w3.org/1999/xlink" x="0px" y="0px"
	 viewBox="0 0 465.7 340.03" style="enable-background:new 0 0 465.7 340.03;" xml:space="preserve">
<style type="text/css">
	.st0{fill:#001D35;}
</style>
<path className="st0" d="M454.24,143.88c-8.56-47.06-42.55-81.4-86.6-87.5c-30.05-4.16-56.22,4.28-75.66,24.4
	c-12.61,13.05-22.48,26.39-29.33,39.63c-18.6,35.94-38.73,78.25-58.19,119.15c-11.5,24.17-26.9,56.63-38.75,80.87h4.16
	c11.6-23.77,26.73-55.65,37.95-79.25c19.45-40.88,39.56-83.15,58.14-119.05c6.69-12.93,16.35-25.97,28.71-38.77
	c18.59-19.24,43.66-27.3,72.49-23.31c42.41,5.87,75.15,39.01,83.41,84.45c7.64,42.05-13.72,86.9-50.71,106.6
	c-69.24,31.74-125.32-5.91-153.37-32.24c-0.74-0.69-1.9-0.67-2.6,0.06c-0.71,0.74-0.69,1.92,0.06,2.63
	c14.41,13.51,37.16,30.88,65.88,39.66c30.61,9.36,61.43,7.09,91.71-6.79C440.01,233.95,462.16,187.46,454.24,143.88z"/>
<path className="st0" d="M450.42,100.37c-7.5-44.45-32.71-76.7-76.26-91.2C333.11-4.5,296.01,4.58,266.4,36.07
	c-10.45,11.11-19.15,24.35-26.47,37.81c-20.39,37.54-39.86,75.59-59.26,113.66c-17.66,34.63-47.12,48.43-86.03,39.52
	c-45.4-10.39-77.13-53.91-76.37-104.75c0.74-49.76,32.88-90.37,78.43-98.08c5.7-0.96,8.94-2.31,9.3-5.6
	c0.37-3.35-2.53-6.21-5.89-6.06c-55.15,2.44-98.56,58.57-93.2,121.6c2.93,34.41,16.73,63.61,44.35,85.22
	c32.14,25.15,67.89,26.88,107.08,13.1c-13.08,27.29-28.99,60.55-42.11,87.94h14.45L250.76,79.39c7.4-14.29,17.8-27.58,29.03-39.2
	c19.92-20.62,45.72-27.78,74.08-23.86c43.31,5.99,76.69,40.25,85,85.97c7.82,43-13.82,88.4-51.75,108.6
	c-37.18,19.8-79.08,12.67-113.26-19.99c-3.82-3.65-6.63-5.16-9.43-3.55c-3.45,1.98-3.98,6.81-1.26,9.72
	c24.54,26.31,54.36,39.71,90.37,35.7C418.72,225.52,461.67,166.98,450.42,100.37z"/>
<g>
	<path className="st0" d="M220.25,305.9h-6.61v15.13h-7.91v-39.42h14.51c9.49,0,14.23,5.36,14.23,12.2
		C234.48,299.8,230.41,305.9,220.25,305.9z M219.91,299.51c4.46,0,6.44-2.2,6.44-5.7c0-3.61-1.98-5.76-6.44-5.76h-6.27v11.46H219.91
		z"/>
	<path className="st0" d="M254.81,321.43c-8.19,0-14.51-4.29-14.63-11.75h8.47c0.23,3.16,2.32,5.25,5.99,5.25c3.73,0,5.93-1.98,5.93-4.8
		c0-8.53-20.33-3.39-20.27-17.68c0-7.12,5.76-11.41,13.89-11.41c8.08,0,13.61,4.12,14.12,11.24h-8.7c-0.17-2.6-2.26-4.63-5.65-4.69
		c-3.11-0.11-5.42,1.41-5.42,4.63c0,7.91,20.22,3.5,20.22,17.39C268.76,315.83,263.79,321.43,254.81,321.43z"/>
	<path className="st0" d="M290.33,289.74c5.53,0,10.17,3.05,12.14,7.12v-17.62h3.95v41.79h-3.95v-6.89c-1.81,4.07-6.1,7.34-12.2,7.34
		c-8.47,0-14.74-6.27-14.74-15.93S281.81,289.74,290.33,289.74z M291.01,293.19c-6.49,0-11.46,4.52-11.46,12.37
		c0,7.79,4.97,12.48,11.46,12.48c6.33,0,11.46-4.74,11.46-12.42S297.34,293.19,291.01,293.19z"/>
	<path className="st0" d="M315.69,281.44c0-1.69,1.3-2.88,2.88-2.88s2.88,1.19,2.88,2.88s-1.3,2.94-2.88,2.94
		S315.69,283.14,315.69,281.44z M316.6,290.2h3.95v30.83h-3.95V290.2z"/>
	<path className="st0" d="M343.59,289.74c6.1,0,10.45,3.28,12.2,7.17v-6.72h3.95v31.62c0,8.64-5.93,14.34-14.4,14.34
		c-7.96,0-13.5-4.07-14.74-10.5h3.9c1.3,4.18,5.2,7.06,10.84,7.06c5.87,0,10.45-3.9,10.45-10.9v-7.62c-1.81,3.95-6.1,7.28-12.2,7.28
		c-8.47,0-14.74-6.27-14.74-15.93S335.12,289.74,343.59,289.74z M344.33,293.19c-6.49,0-11.46,4.52-11.46,12.37
		c0,7.79,4.97,12.48,11.46,12.48c6.33,0,11.46-4.74,11.46-12.42S350.65,293.19,344.33,293.19z"/>
	<path className="st0" d="M369.01,281.44c0-1.69,1.3-2.88,2.88-2.88s2.88,1.19,2.88,2.88s-1.3,2.94-2.88,2.94
		S369.01,283.14,369.01,281.44z M369.91,290.2h3.95v30.83h-3.95V290.2z"/>
	<path className="st0" d="M385.1,293.53h-4.29v-3.33h4.29v-7.74h4.01v7.74h8.47v3.33h-8.47v19.14c0,3.78,1.3,4.97,4.86,4.97h3.61v3.39
		h-4.24c-5.36,0-8.24-2.2-8.24-8.36V293.53z"/>
	<path className="st0" d="M418.14,289.74c6.21,0,10.45,3.33,12.2,7.23v-6.78h3.95v30.83h-3.95v-6.83c-1.81,3.95-6.1,7.28-12.25,7.28
		c-8.41,0-14.68-6.27-14.68-15.93S409.67,289.74,418.14,289.74z M418.88,293.19c-6.49,0-11.46,4.52-11.46,12.37
		c0,7.79,4.97,12.48,11.46,12.48c6.33,0,11.46-4.74,11.46-12.42S425.2,293.19,418.88,293.19z"/>
	<path className="st0" d="M444.46,279.24h3.95v41.79h-3.95V279.24z"/>
</g>
</svg>
