<?xml version="1.0" encoding="utf-8"?>
<!-- Generator: Adobe Illustrator 28.2.0, SVG Export Plug-In . SVG Version: 6.00 Build 0)  -->
<svg version="1.1" id="Layer_1" xmlns="http://www.w3.org/2000/svg" xmlns:xlink="http://www.w3.org/1999/xlink" x="0px" y="0px"
	 viewBox="0 0 689.1 521.1" style="enable-background:new 0 0 689.1 521.1;" xml:space="preserve">
<style type="text/css">
	.st0{fill:#061E33;}
	.st1{font-family:'Poppins-SemiBold';}
	.st2{font-size:26.5377px;}
</style>
<g>
	<g>
		<path class="st0" d="M652.6,206.1c-11.9-65.3-59-112.9-120.2-121.4c-41.7-5.8-78,5.9-105,33.8c-17.5,18.1-31.2,36.6-40.7,55
			C361,223.4,333.1,282.1,306,338.9c-16,33.5-37.3,78.6-53.8,112.2h5.8c16.1-33,37.1-77.2,52.7-110c27-56.7,54.9-115.4,80.7-165.2
			c9.3-17.9,22.7-36,39.8-53.8c25.8-26.7,60.6-37.9,100.6-32.4c58.9,8.1,104.3,54.1,115.7,117.2c10.6,58.4-19,120.6-70.4,147.9
			c-96.1,44-173.9-8.2-212.8-44.7c-1-1-2.6-0.9-3.6,0.1s-1,2.7,0.1,3.6c20,18.7,51.6,42.9,91.4,55c42.5,13,85.3,9.8,127.3-9.4
			C632.9,331.1,663.7,266.6,652.6,206.1z"/>
		<path class="st0" d="M647.3,145.7C636.9,84.1,601.9,39.3,541.5,19.2c-57-19-108.5-6.4-149.5,37.3C377.5,72,365.4,90.3,355.3,109
			C327,161.1,300,213.9,273,266.7c-24.5,48.1-65.4,67.2-119.4,54.8c-63-14.4-107-74.8-106-145.4c1-69,45.6-125.4,108.8-136.1
			c7.9-1.4,12.4-3.2,12.9-7.8s-3.5-8.6-8.2-8.4C84.7,27.3,24.4,105.2,31.9,192.7C36,240.4,55.1,281,93.4,311
			c44.6,34.9,94.2,37.3,148.6,18.2c-18.1,37.9-40.2,84-58.4,122h20.1l166.6-334.5c10.3-19.8,24.7-38.3,40.3-54.4
			c27.6-28.6,63.4-38.6,102.8-33.1c60.1,8.3,106.4,55.9,117.9,119.3c10.8,59.7-19.2,122.7-71.8,150.7
			c-51.6,27.5-109.7,17.6-157.2-27.8c-5.3-5.1-9.2-7.2-13.1-4.9c-4.8,2.7-5.5,9.4-1.7,13.5c34.1,36.5,75.4,55.1,125.4,49.5
			C603.4,319.4,662.9,238.2,647.3,145.7z"/>
		<g>
			<path class="st0" d="M328,430.9h-9.2v21h-11v-54.7H328c13.2,0,19.7,7.4,19.7,16.9C347.7,422.5,342,430.9,328,430.9z M327.5,422.1
				c6.2,0,8.9-3.1,8.9-7.9c0-5-2.7-8-8.9-8h-8.7v15.9H327.5L327.5,422.1z"/>
			<path class="st0" d="M375.9,452.5c-11.4,0-20.1-5.9-20.3-16.3h11.8c0.3,4.4,3.2,7.3,8.3,7.3c5.2,0,8.2-2.7,8.2-6.7
				c0-11.8-28.2-4.7-28.1-24.5c0-9.9,8-15.8,19.3-15.8c11.2,0,18.9,5.7,19.6,15.6h-12.1c-0.2-3.6-3.1-6.4-7.8-6.5
				c-4.3-0.1-7.5,2-7.5,6.4c0,11,28,4.8,28,24.1C395.3,444.7,388.4,452.5,375.9,452.5z"/>
			<path class="st0" d="M425.2,408.5c7.7,0,14.1,4.2,16.9,9.9V394h5.5v58H442v-9.5c-2.5,5.6-8.5,10.2-16.9,10.2
				c-11.8,0-20.5-8.7-20.5-22.1S413.4,408.5,425.2,408.5z M426.2,413.3c-9,0-15.9,6.3-15.9,17.2c0,10.8,6.9,17.3,15.9,17.3
				c8.8,0,15.9-6.6,15.9-17.2C442,419.9,434.9,413.3,426.2,413.3z"/>
			<path class="st0" d="M460.4,397c0-2.4,1.8-4,4-4s4,1.6,4,4s-1.8,4.1-4,4.1S460.4,399.4,460.4,397z M461.6,409.2h5.5V452h-5.5
				V409.2z"/>
			<path class="st0" d="M499.1,408.5c8.5,0,14.5,4.6,16.9,9.9v-9.3h5.5V453c0,12-8.2,19.9-20,19.9c-11,0-18.7-5.6-20.5-14.6h5.4
				c1.8,5.8,7.2,9.8,15,9.8c8.2,0,14.5-5.4,14.5-15.1v-10.6c-2.5,5.5-8.5,10.1-16.9,10.1c-11.8,0-20.5-8.7-20.5-22.1
				S487.4,408.5,499.1,408.5z M500.1,413.3c-9,0-15.9,6.3-15.9,17.2c0,10.8,6.9,17.3,15.9,17.3c8.8,0,15.9-6.6,15.9-17.2
				C516,419.9,508.9,413.3,500.1,413.3z"/>
			<path class="st0" d="M534.4,397c0-2.4,1.8-4,4-4s4,1.6,4,4s-1.8,4.1-4,4.1S534.4,399.4,534.4,397z M535.6,409.2h5.5V452h-5.5
				V409.2z"/>
			<path class="st0" d="M556.7,413.8h-5.9v-4.6h5.9v-10.7h5.6v10.7H574v4.6h-11.8v26.6c0,5.2,1.8,6.9,6.7,6.9h5v4.7H568
				c-7.4,0-11.4-3.1-11.4-11.6L556.7,413.8L556.7,413.8z"/>
			<path class="st0" d="M602.6,408.5c8.6,0,14.5,4.6,16.9,10v-9.4h5.5V452h-5.5v-9.5c-2.5,5.5-8.5,10.1-17,10.1
				c-11.7,0-20.4-8.7-20.4-22.1S590.8,408.5,602.6,408.5z M603.6,413.3c-9,0-15.9,6.3-15.9,17.2c0,10.8,6.9,17.3,15.9,17.3
				c8.8,0,15.9-6.6,15.9-17.2C619.5,419.9,612.4,413.3,603.6,413.3z"/>
			<path class="st0" d="M639.1,394h5.5v58h-5.5V394z"/>
		</g>
	</g>
</g>
<text transform="matrix(1 0 0 1 20.1629 510.9514)" class="st0 st1 st2">AWARDED INNOVATION AND EXCELLENCE AWARD</text>
</svg>
