<?xml version="1.0" encoding="utf-8"?>
<!-- Generator: Adobe Illustrator 28.2.0, SVG Export Plug-In . SVG Version: 6.00 Build 0)  -->
<svg version="1.1" id="Layer_1" xmlns="http://www.w3.org/2000/svg" xmlns:xlink="http://www.w3.org/1999/xlink" x="0px" y="0px"
	 viewBox="0 0 641 559" style="enable-background:new 0 0 641 559;" xml:space="preserve">
<style type="text/css">
	.st0{fill:#061E33;}
	.st1{enable-background:new    ;}
</style>
<g>
	<g>
		<path class="st0" d="M629.6,206.1c-11.9-65.3-59-112.9-120.2-121.4c-41.7-5.8-78,5.9-105,33.8c-17.5,18.1-31.2,36.6-40.7,55
			C338,223.4,310.1,282.1,283,338.9c-16,33.5-37.3,78.6-53.8,112.2h5.8c16.1-33,37.1-77.2,52.7-110c27-56.7,54.9-115.4,80.7-165.2
			c9.3-17.9,22.7-36,39.8-53.8c25.8-26.7,60.6-37.9,100.6-32.4c58.9,8.1,104.3,54.1,115.7,117.2c10.6,58.4-19,120.6-70.4,147.9
			c-96.1,44-173.9-8.2-212.8-44.7c-1-1-2.6-0.9-3.6,0.1s-1,2.7,0.1,3.6c20,18.7,51.6,42.9,91.4,55c42.5,13,85.3,9.8,127.3-9.4
			C609.9,331.1,640.7,266.6,629.6,206.1z"/>
		<path class="st0" d="M624.3,145.7C613.9,84.1,578.9,39.3,518.5,19.2c-57-19-108.5-6.4-149.5,37.3C354.5,72,342.4,90.3,332.3,109
			C304,161.1,277,213.9,250,266.7c-24.5,48.1-65.4,67.2-119.4,54.8c-63-14.4-107-74.8-106-145.4c1-69,45.6-125.4,108.8-136.1
			c7.9-1.4,12.4-3.2,12.9-7.8s-3.5-8.6-8.2-8.4C61.7,27.3,1.4,105.2,8.9,192.7C13,240.4,32.1,281,70.4,311
			c44.6,34.9,94.2,37.3,148.6,18.2c-18.1,37.9-40.2,84-58.4,122h20.1l166.6-334.5c10.3-19.8,24.7-38.3,40.3-54.4
			c27.6-28.6,63.4-38.6,102.8-33.1c60.1,8.3,106.4,55.9,117.9,119.3c10.8,59.7-19.2,122.7-71.8,150.7
			c-51.6,27.5-109.7,17.6-157.2-27.8c-5.3-5.1-9.2-7.2-13.1-4.9c-4.8,2.7-5.5,9.4-1.7,13.5c34.1,36.5,75.4,55.1,125.4,49.5
			C580.4,319.4,639.9,238.2,624.3,145.7z"/>
		<g>
			<path class="st0" d="M305,430.9h-9.2v21h-11v-54.7H305c13.2,0,19.7,7.4,19.7,16.9C324.7,422.5,319,430.9,305,430.9z M304.5,422.1
				c6.2,0,8.9-3.1,8.9-7.9c0-5-2.7-8-8.9-8h-8.7v15.9H304.5L304.5,422.1z"/>
			<path class="st0" d="M352.9,452.5c-11.4,0-20.1-5.9-20.3-16.3h11.8c0.3,4.4,3.2,7.3,8.3,7.3c5.2,0,8.2-2.7,8.2-6.7
				c0-11.8-28.2-4.7-28.1-24.5c0-9.9,8-15.8,19.3-15.8c11.2,0,18.9,5.7,19.6,15.6h-12.1c-0.2-3.6-3.1-6.4-7.8-6.5
				c-4.3-0.1-7.5,2-7.5,6.4c0,11,28,4.8,28,24.1C372.3,444.7,365.4,452.5,352.9,452.5z"/>
			<path class="st0" d="M402.2,408.5c7.7,0,14.1,4.2,16.9,9.9V394h5.5v58H419v-9.5c-2.5,5.6-8.5,10.2-16.9,10.2
				c-11.8,0-20.5-8.7-20.5-22.1S390.4,408.5,402.2,408.5z M403.2,413.3c-9,0-15.9,6.3-15.9,17.2c0,10.8,6.9,17.3,15.9,17.3
				c8.8,0,15.9-6.6,15.9-17.2C419,419.9,411.9,413.3,403.2,413.3z"/>
			<path class="st0" d="M437.4,397c0-2.4,1.8-4,4-4s4,1.6,4,4s-1.8,4.1-4,4.1S437.4,399.4,437.4,397z M438.6,409.2h5.5V452h-5.5
				V409.2z"/>
			<path class="st0" d="M476.1,408.5c8.5,0,14.5,4.6,16.9,9.9v-9.3h5.5V453c0,12-8.2,19.9-20,19.9c-11,0-18.7-5.6-20.5-14.6h5.4
				c1.8,5.8,7.2,9.8,15,9.8c8.2,0,14.5-5.4,14.5-15.1v-10.6c-2.5,5.5-8.5,10.1-16.9,10.1c-11.8,0-20.5-8.7-20.5-22.1
				S464.4,408.5,476.1,408.5z M477.1,413.3c-9,0-15.9,6.3-15.9,17.2c0,10.8,6.9,17.3,15.9,17.3c8.8,0,15.9-6.6,15.9-17.2
				C493,419.9,485.9,413.3,477.1,413.3z"/>
			<path class="st0" d="M511.4,397c0-2.4,1.8-4,4-4s4,1.6,4,4s-1.8,4.1-4,4.1S511.4,399.4,511.4,397z M512.6,409.2h5.5V452h-5.5
				V409.2z"/>
			<path class="st0" d="M533.7,413.8h-5.9v-4.6h5.9v-10.7h5.6v10.7H551v4.6h-11.8v26.6c0,5.2,1.8,6.9,6.7,6.9h5v4.7H545
				c-7.4,0-11.4-3.1-11.4-11.6L533.7,413.8L533.7,413.8z"/>
			<path class="st0" d="M579.6,408.5c8.6,0,14.5,4.6,16.9,10v-9.4h5.5V452h-5.5v-9.5c-2.5,5.5-8.5,10.1-17,10.1
				c-11.7,0-20.4-8.7-20.4-22.1S567.8,408.5,579.6,408.5z M580.6,413.3c-9,0-15.9,6.3-15.9,17.2c0,10.8,6.9,17.3,15.9,17.3
				c8.8,0,15.9-6.6,15.9-17.2C596.5,419.9,589.4,413.3,580.6,413.3z"/>
			<path class="st0" d="M616.1,394h5.5v58h-5.5V394z"/>
		</g>
	</g>
</g>
<g class="st1">
	<path class="st0" d="M123.1,492.4h3.7V511h-3.7V492.4z"/>
	<path class="st0" d="M147.7,492.4V511H144l-8.4-12.7V511h-3.7v-18.5h3.7l8.4,12.7v-12.7H147.7z"/>
	<path class="st0" d="M168.5,492.4V511h-3.7l-8.4-12.7V511h-3.7v-18.5h3.7l8.4,12.7v-12.7H168.5z"/>
	<path class="st0" d="M182.1,511.1c-5.2,0-9.5-3.9-9.5-9.5c0-5.5,4.3-9.5,9.5-9.5c5.3,0,9.5,3.9,9.5,9.5
		C191.6,507.2,187.3,511.1,182.1,511.1z M182.1,507.8c3.3,0,5.7-2.4,5.7-6.2c0-3.8-2.3-6.1-5.7-6.1c-3.4,0-5.7,2.4-5.7,6.1
		C176.4,505.4,178.7,507.8,182.1,507.8z"/>
	<path class="st0" d="M208.3,492.4h4l-6.8,18.5H201l-6.8-18.5h4l5.1,14.7L208.3,492.4z"/>
	<path class="st0" d="M227.2,507.4h-7.4l-1.2,3.5h-3.9l6.7-18.5h4.3l6.7,18.5h-3.9L227.2,507.4z M223.5,496.7l-2.7,7.7h5.4
		L223.5,496.7z"/>
	<path class="st0" d="M235.2,492.4h13.6v3h-4.9V511h-3.7v-15.5h-4.9V492.4z"/>
	<path class="st0" d="M252.8,492.4h3.7V511h-3.7V492.4z"/>
	<path class="st0" d="M270.1,511.1c-5.2,0-9.5-3.9-9.5-9.5c0-5.5,4.3-9.5,9.5-9.5c5.3,0,9.5,3.9,9.5,9.5
		C279.6,507.2,275.4,511.1,270.1,511.1z M270.1,507.8c3.3,0,5.7-2.4,5.7-6.2c0-3.8-2.3-6.1-5.7-6.1c-3.4,0-5.7,2.4-5.7,6.1
		C264.4,505.4,266.7,507.8,270.1,507.8z"/>
	<path class="st0" d="M299.5,492.4V511h-3.7l-8.4-12.7V511h-3.7v-18.5h3.7l8.4,12.7v-12.7H299.5z"/>
	<path class="st0" d="M321,496.7c0.1-1.2-0.7-1.8-1.6-1.8c-1,0-1.7,0.7-1.7,1.6s0.5,1.7,1.7,2.9l4.7,4.6c0.1-0.1,0.1-0.1,0.1-0.2
		l1.5-2.5h3.9l-1.9,3.3c-0.4,0.7-0.7,1.4-1.1,2l4.5,4.4h-4.6l-2-2c-1.7,1.5-3.8,2.3-6.3,2.3c-4.1,0-6.8-2.2-6.8-5.7
		c0-2.4,1.4-4.4,4.1-5.7c-1-1.2-1.4-2.2-1.4-3.4c0-2.5,2-4.5,5.4-4.5c3.5,0,5.3,2.1,5.1,4.7H321z M322,506.7l-4.6-4.5
		c-1.8,0.8-2.6,1.9-2.6,3.2c0,1.6,1.3,2.8,3.3,2.8C319.7,508.2,321,507.7,322,506.7z"/>
	<path class="st0" d="M352.5,495.4h-7v4.6h6.2v2.9h-6.2v4.9h7v3h-10.7v-18.5h10.7V495.4z"/>
	<path class="st0" d="M364.3,504.7l-3.6,6.2h-4.2l5.8-9.3l-5.9-9.2h4.3l4,6.2l3.6-6.2h4.2l-5.8,9.3l5.9,9.2h-4.3L364.3,504.7z"/>
	<path class="st0" d="M385.2,492.2c4.1,0,7.5,2.2,8.7,6h-4.3c-0.9-1.8-2.5-2.7-4.5-2.7c-3.2,0-5.5,2.4-5.5,6.1
		c0,3.7,2.3,6.1,5.5,6.1c2,0,3.6-0.9,4.5-2.7h4.3c-1.2,3.8-4.6,6-8.7,6c-5.3,0-9.4-3.9-9.4-9.4S379.9,492.2,385.2,492.2z"/>
	<path class="st0" d="M409.2,495.4h-7v4.6h6.2v2.9h-6.2v4.9h7v3h-10.7v-18.5h10.7V495.4z"/>
	<path class="st0" d="M417.6,492.4V508h6.1v2.9h-9.8v-18.5H417.6z"/>
	<path class="st0" d="M431.1,492.4V508h6.1v2.9h-9.8v-18.5H431.1z"/>
	<path class="st0" d="M451.7,495.4h-7v4.6h6.2v2.9h-6.2v4.9h7v3h-10.7v-18.5h10.7V495.4z"/>
	<path class="st0" d="M472.2,492.4V511h-3.7l-8.4-12.7V511h-3.7v-18.5h3.7l8.4,12.7v-12.7H472.2z"/>
	<path class="st0" d="M485.7,492.2c4.1,0,7.5,2.2,8.7,6h-4.3c-0.9-1.8-2.5-2.7-4.5-2.7c-3.2,0-5.5,2.4-5.5,6.1
		c0,3.7,2.3,6.1,5.5,6.1c2,0,3.6-0.9,4.5-2.7h4.3c-1.2,3.8-4.6,6-8.7,6c-5.3,0-9.4-3.9-9.4-9.4S480.3,492.2,485.7,492.2z"/>
	<path class="st0" d="M509.6,495.4h-7v4.6h6.2v2.9h-6.2v4.9h7v3h-10.7v-18.5h10.7V495.4z"/>
	<path class="st0" d="M219.8,539.3h-7.4l-1.2,3.5h-3.9l6.7-18.5h4.3l6.7,18.5h-3.9L219.8,539.3z M216.2,528.5l-2.7,7.7h5.4
		L216.2,528.5z"/>
	<path class="st0" d="M227.6,524.3h4l3.3,14.4l3.8-14.4h4.1l3.6,14.3l3.3-14.3h4l-5.2,18.5H244l-3.5-13.2l-3.6,13.2l-4.4,0
		L227.6,524.3z"/>
	<path class="st0" d="M268.7,539.3h-7.4l-1.2,3.5h-3.9l6.7-18.5h4.3l6.7,18.5h-3.9L268.7,539.3z M265,528.5l-2.7,7.7h5.4L265,528.5z
		"/>
	<path class="st0" d="M284.6,524.3c4.5,0,6.7,2.6,6.7,5.7c0,2.3-1.2,4.5-4.2,5.3l4.4,7.5h-4.3l-4.1-7.2h-1.8v7.2h-3.7v-18.5H284.6z
		 M284.5,527.4h-3.1v5.4h3.1c2.1,0,3-1.1,3-2.8C287.5,528.4,286.5,527.4,284.5,527.4z"/>
	<path class="st0" d="M312.2,533.6c0,5.6-3.8,9.2-9.8,9.2H296v-18.5h6.5C308.4,524.3,312.2,527.9,312.2,533.6z M302.3,539.6
		c3.9,0,6.1-2.2,6.1-6.1s-2.2-6.2-6.1-6.2h-2.6v12.2H302.3z"/>
	<path class="st0" d="M322.7,524.3h4l3.3,14.4l3.8-14.4h4.1l3.6,14.3l3.3-14.3h4l-5.2,18.5h-4.4l-3.5-13.2l-3.6,13.2l-4.4,0
		L322.7,524.3z"/>
	<path class="st0" d="M352.5,524.3h3.7v18.5h-3.7V524.3z"/>
	<path class="st0" d="M377,524.2v18.5h-3.7l-8.4-12.7v12.7h-3.7v-18.5h3.7l8.4,12.7v-12.7H377z"/>
	<path class="st0" d="M397.9,524.2v18.5h-3.7l-8.4-12.7v12.7H382v-18.5h3.7l8.4,12.7v-12.7H397.9z"/>
	<path class="st0" d="M413.6,527.3h-7v4.6h6.2v2.9h-6.2v4.9h7v3h-10.7v-18.5h10.7V527.3z"/>
	<path class="st0" d="M425.2,524.3c4.5,0,6.7,2.6,6.7,5.7c0,2.3-1.2,4.5-4.2,5.3l4.4,7.5h-4.3l-4.1-7.2H422v7.2h-3.7v-18.5H425.2z
		 M425.1,527.4H422v5.4h3.1c2.1,0,3-1.1,3-2.8C428.1,528.4,427.2,527.4,425.1,527.4z"/>
</g>
</svg>
