<?xml version="1.0" encoding="utf-8"?>
<!-- Generator: Adobe Illustrator 28.2.0, SVG Export Plug-In . SVG Version: 6.00 Build 0)  -->
<svg version="1.1" id="Layer_1" xmlns="http://www.w3.org/2000/svg" xmlns:xlink="http://www.w3.org/1999/xlink" x="0px" y="0px"
	 viewBox="0 0 689.1 560.5" style="enable-background:new 0 0 689.1 560.5;" xml:space="preserve">
<style type="text/css">
	.st0{fill:#061E33;}
	.st1{enable-background:new    ;}
</style>
<g>
	<g>
		<path className="st0" d="M652.6,202.1c-11.9-65.3-59-112.9-120.2-121.4c-41.7-5.8-78,5.9-105,33.8c-17.5,18.1-31.2,36.6-40.7,55
			C361,219.4,333.1,278.1,306,334.9c-16,33.5-37.3,78.6-53.8,112.2h5.8c16.1-33,37.1-77.2,52.7-110c27-56.7,54.9-115.4,80.7-165.2
			c9.3-17.9,22.7-36,39.8-53.8c25.8-26.7,60.6-37.9,100.6-32.4c58.9,8.1,104.3,54.1,115.7,117.2c10.6,58.4-19,120.6-70.4,147.9
			c-96.1,44-173.9-8.2-212.8-44.7c-1-1-2.6-0.9-3.6,0.1s-1,2.7,0.1,3.6c20,18.7,51.6,42.9,91.4,55c42.5,13,85.3,9.8,127.3-9.4
			C632.9,327.1,663.7,262.6,652.6,202.1z"/>
		<path className="st0" d="M647.3,141.7C636.9,80.1,601.9,35.3,541.5,15.2C484.5-3.8,433,8.8,392,52.5C377.5,68,365.4,86.3,355.3,105
			C327,157.1,300,209.9,273,262.7c-24.5,48.1-65.4,67.2-119.4,54.8c-63-14.4-107-74.8-106-145.4c1-69,45.6-125.4,108.8-136.1
			c7.9-1.4,12.4-3.2,12.9-7.8s-3.5-8.6-8.2-8.4C84.7,23.3,24.4,101.2,31.9,188.7C36,236.4,55.1,277,93.4,307
			c44.6,34.9,94.2,37.3,148.6,18.2c-18.1,37.9-40.2,84-58.4,122h20.1l166.6-334.5c10.3-19.8,24.7-38.3,40.3-54.4
			c27.6-28.6,63.4-38.6,102.8-33.1c60.1,8.3,106.4,55.9,117.9,119.3c10.8,59.7-19.2,122.7-71.8,150.7
			c-51.6,27.5-109.7,17.6-157.2-27.8c-5.3-5.1-9.2-7.2-13.1-4.9c-4.8,2.7-5.5,9.4-1.7,13.5c34.1,36.5,75.4,55.1,125.4,49.5
			C603.4,315.4,662.9,234.2,647.3,141.7z"/>
		<g>
			<path className="st0" d="M328,426.9h-9.2v21h-11v-54.7H328c13.2,0,19.7,7.4,19.7,16.9C347.7,418.5,342,426.9,328,426.9z M327.5,418.1
				c6.2,0,8.9-3.1,8.9-7.9c0-5-2.7-8-8.9-8h-8.7v15.9H327.5L327.5,418.1z"/>
			<path className="st0" d="M375.9,448.5c-11.4,0-20.1-5.9-20.3-16.3h11.8c0.3,4.4,3.2,7.3,8.3,7.3c5.2,0,8.2-2.7,8.2-6.7
				c0-11.8-28.2-4.7-28.1-24.5c0-9.9,8-15.8,19.3-15.8c11.2,0,18.9,5.7,19.6,15.6h-12.1c-0.2-3.6-3.1-6.4-7.8-6.5
				c-4.3-0.1-7.5,2-7.5,6.4c0,11,28,4.8,28,24.1C395.3,440.7,388.4,448.5,375.9,448.5z"/>
			<path className="st0" d="M425.2,404.5c7.7,0,14.1,4.2,16.9,9.9V390h5.5v58H442v-9.5c-2.5,5.6-8.5,10.2-16.9,10.2
				c-11.8,0-20.5-8.7-20.5-22.1S413.4,404.5,425.2,404.5z M426.2,409.3c-9,0-15.9,6.3-15.9,17.2c0,10.8,6.9,17.3,15.9,17.3
				c8.8,0,15.9-6.6,15.9-17.2C442,415.9,434.9,409.3,426.2,409.3z"/>
			<path className="st0" d="M460.4,393c0-2.4,1.8-4,4-4s4,1.6,4,4s-1.8,4.1-4,4.1S460.4,395.4,460.4,393z M461.6,405.2h5.5V448h-5.5
				V405.2z"/>
			<path className="st0" d="M499.1,404.5c8.5,0,14.5,4.6,16.9,9.9v-9.3h5.5V449c0,12-8.2,19.9-20,19.9c-11,0-18.7-5.6-20.5-14.6h5.4
				c1.8,5.8,7.2,9.8,15,9.8c8.2,0,14.5-5.4,14.5-15.1v-10.6c-2.5,5.5-8.5,10.1-16.9,10.1c-11.8,0-20.5-8.7-20.5-22.1
				S487.4,404.5,499.1,404.5z M500.1,409.3c-9,0-15.9,6.3-15.9,17.2c0,10.8,6.9,17.3,15.9,17.3c8.8,0,15.9-6.6,15.9-17.2
				C516,415.9,508.9,409.3,500.1,409.3z"/>
			<path className="st0" d="M534.4,393c0-2.4,1.8-4,4-4s4,1.6,4,4s-1.8,4.1-4,4.1S534.4,395.4,534.4,393z M535.6,405.2h5.5V448h-5.5
				V405.2z"/>
			<path className="st0" d="M556.7,409.8h-5.9v-4.6h5.9v-10.7h5.6v10.7H574v4.6h-11.8v26.6c0,5.2,1.8,6.9,6.7,6.9h5v4.7H568
				c-7.4,0-11.4-3.1-11.4-11.6L556.7,409.8L556.7,409.8z"/>
			<path className="st0" d="M602.6,404.5c8.6,0,14.5,4.6,16.9,10v-9.4h5.5V448h-5.5v-9.5c-2.5,5.5-8.5,10.1-17,10.1
				c-11.7,0-20.4-8.7-20.4-22.1S590.8,404.5,602.6,404.5z M603.6,409.3c-9,0-15.9,6.3-15.9,17.2c0,10.8,6.9,17.3,15.9,17.3
				c8.8,0,15.9-6.6,15.9-17.2C619.5,415.9,612.4,409.3,603.6,409.3z"/>
			<path className="st0" d="M639.1,390h5.5v58h-5.5V390z"/>
		</g>
	</g>
</g>
<g>
	<g className="st1">
		<path className="st0" d="M31.9,540.7H17.7l-2.6,7.2h-4.5l11.7-32.3h4.9L39,548h-4.5L31.9,540.7z M24.8,520.9l-5.9,16.4h11.7
			L24.8,520.9z"/>
		<path className="st0" d="M43.5,515.5H48l7.1,27.5l7.8-27.5h4.8l7.5,27.4l7.1-27.4h4.6L77.4,548h-4.8l-7.5-26.1L57.3,548l-4.7,0
			L43.5,515.5z"/>
		<path className="st0" d="M112.7,540.7H98.5l-2.6,7.2h-4.5l11.7-32.3h4.9l11.7,32.3h-4.5L112.7,540.7z M105.6,520.9l-5.9,16.4h11.7
			L105.6,520.9z"/>
		<path className="st0" d="M137.3,515.5c7.6,0,11.3,4.2,11.3,9.5c0,4.1-2.3,8.1-7.7,9.3L149,548h-5.1l-7.7-13.3h-5.1V548h-4.2v-32.5
			H137.3z M137.3,519h-6.2v12.3h6.2c4.8,0,6.9-2.6,6.9-6.2C144.2,521.4,142.2,519,137.3,519z"/>
		<path className="st0" d="M184.5,531.8c0,10.1-6.6,16.2-17.2,16.2h-10.1v-32.5h10.1C177.9,515.5,184.5,521.7,184.5,531.8z M167.2,544.5
			c8.5,0,12.9-4.8,12.9-12.7s-4.4-12.9-12.9-12.9h-5.9v25.5H167.2z"/>
		<path className="st0" d="M209.5,518.9h-13.2v10.9h11.8v3.5h-11.8v11.2h13.2v3.5H192v-32.5h17.5V518.9z"/>
		<path className="st0" d="M245.2,531.8c0,10.1-6.6,16.2-17.2,16.2h-10.1v-32.5H228C238.6,515.5,245.2,521.7,245.2,531.8z M228,544.5
			c8.5,0,12.9-4.8,12.9-12.7s-4.4-12.9-12.9-12.9h-5.9v25.5H228z"/>
		<path className="st0" d="M281.8,515.1c7,0,12.6,3.5,15,9.8h-5.1c-1.8-3.9-5.2-6.1-10-6.1c-6.8,0-11.9,4.9-11.9,12.9
			c0,7.9,5.1,12.9,11.9,12.9c4.8,0,8.2-2.2,10-6.1h5.1c-2.4,6.2-8,9.7-15,9.7c-9.1,0-16.2-6.8-16.2-16.5S272.7,515.1,281.8,515.1z"
			/>
		<path className="st0" d="M322.6,518.9h-13.2v10.9h11.8v3.5h-11.8v11.2h13.2v3.5h-17.5v-32.5h17.5V518.9z"/>
		<path className="st0" d="M345.7,548.3c-9.1,0-16.3-6.8-16.3-16.6s7.2-16.6,16.3-16.6c9.2,0,16.3,6.8,16.3,16.6
			S354.8,548.3,345.7,548.3z M345.7,544.6c6.8,0,12-5,12-12.9c0-8-5.1-12.9-12-12.9c-6.8,0-12,4.9-12,12.9
			C333.7,539.6,338.8,544.6,345.7,544.6z"/>
		<path className="st0" d="M398.6,548.3c-9.1,0-16.3-6.8-16.3-16.6s7.2-16.6,16.3-16.6c9.2,0,16.3,6.8,16.3,16.6
			S407.8,548.3,398.6,548.3z M398.6,544.6c6.8,0,12-5,12-12.9c0-8-5.1-12.9-12-12.9c-6.8,0-12,4.9-12,12.9
			C386.7,539.6,391.8,544.6,398.6,544.6z"/>
		<path className="st0" d="M422.5,515.5h18.4v3.4h-14.1v10.9h11.5v3.4h-11.5V548h-4.2V515.5z"/>
		<path className="st0" d="M460.3,515.5h22v3.4h-8.9v29h-4.2v-29h-8.9V515.5z"/>
		<path className="st0" d="M510.3,533.2h-16.5V548h-4.2v-32.5h4.2v14.3h16.5v-14.3h4.2V548h-4.2V533.2z"/>
		<path className="st0" d="M541.1,518.9h-13.2v10.9h11.8v3.5h-11.8v11.2h13.2v3.5h-17.5v-32.5h17.5V518.9z"/>
		<path className="st0" d="M561.2,515.5h4.7l8,16.4l8-16.4h4.7l-10.6,20.2V548h-4.2v-12.3L561.2,515.5z"/>
		<path className="st0" d="M610.5,518.9h-13.2v10.9h11.8v3.5h-11.8v11.2h13.2v3.5h-17.5v-32.5h17.5V518.9z"/>
		<path className="st0" d="M638.1,540.7H624l-2.6,7.2h-4.5l11.7-32.3h4.9l11.7,32.3h-4.5L638.1,540.7z M631,520.9l-5.9,16.4h11.7
			L631,520.9z"/>
		<path className="st0" d="M662.8,515.5c7.6,0,11.3,4.2,11.3,9.5c0,4.1-2.3,8.1-7.7,9.3l8.2,13.6h-5.1l-7.7-13.3h-5.1V548h-4.2v-32.5
			H662.8z M662.8,519h-6.2v12.3h6.2c4.8,0,6.9-2.6,6.9-6.2C669.7,521.4,667.6,519,662.8,519z"/>
	</g>
</g>
</svg>
